<svg width="13" height="13" viewBox="0 0 13 13" fill="none" xmlns="http://www.w3.org/2000/svg">
<path id="Vector" fill-rule="evenodd" clip-rule="evenodd" d="M8.79262 12.0069C8.83288 12.0472 8.8807 12.0792 8.93334 12.1011C8.98599 12.1229 9.04243 12.1342 9.09943 12.1342C9.15643 12.1342 9.21286 12.1229 9.26551 12.1011C9.31816 12.0792 9.36598 12.0472 9.40623 12.0069L12.8729 8.54019C12.9543 8.45882 13 8.34846 13 8.23339C13 8.11831 12.9543 8.00795 12.8729 7.92658C12.7915 7.84522 12.6812 7.7995 12.5661 7.7995C12.451 7.7995 12.3407 7.84522 12.2593 7.92658L9.53276 10.654V2.16668C9.53276 1.59204 9.30449 1.04094 8.89816 0.634606C8.49183 0.228275 7.94072 0 7.36608 0L0.432705 0C0.317777 0 0.207556 0.0456549 0.126289 0.126921C0.045023 0.208187 -0.000631332 0.318408 -0.000631332 0.433336C-0.000631332 0.548264 0.045023 0.658485 0.126289 0.739751C0.207556 0.821017 0.317777 0.866672 0.432705 0.866672H7.36608C7.71087 0.866672 8.04153 1.00364 8.28533 1.24744C8.52913 1.49123 8.66609 1.8219 8.66609 2.16668V10.654L5.93954 7.92658C5.85817 7.84522 5.74781 7.7995 5.63274 7.7995C5.51767 7.7995 5.40731 7.84522 5.32594 7.92658C5.24457 8.00795 5.19886 8.11831 5.19886 8.23339C5.19886 8.34846 5.24457 8.45882 5.32594 8.54019L8.79262 12.0069Z" fill="#197ACF"/>
</svg>
