<svg xmlns="http://www.w3.org/2000/svg" width="20" height="20" viewBox="0 0 20 20" fill="none">
  <path fillRule="evenodd" clipRule="evenodd" d="M12.6458 16.8535C12.6922 16.9001 12.7474 16.937 12.8081 16.9622C12.8689 16.9874 12.934 17.0004 12.9998 17.0004C13.0655 17.0004 13.1306 16.9874 13.1914 16.9622C13.2521 16.937 13.3073 16.9001 13.3538 16.8535L17.3538 12.8535C17.4476 12.7596 17.5004 12.6323 17.5004 12.4995C17.5004 12.3667 17.4476 12.2394 17.3538 12.1455C17.2599 12.0516 17.1325 11.9989 16.9998 11.9989C16.867 11.9989 16.7396 12.0516 16.6458 12.1455L13.4998 15.2925V5.49951C13.4998 4.83647 13.2364 4.20059 12.7675 3.73174C12.2987 3.2629 11.6628 2.99951 10.9998 2.99951H2.99976C2.86715 2.99951 2.73997 3.05219 2.6462 3.14596C2.55243 3.23973 2.49976 3.3669 2.49976 3.49951C2.49976 3.63212 2.55243 3.7593 2.6462 3.85307C2.73997 3.94683 2.86715 3.99951 2.99976 3.99951H10.9998C11.3976 3.99951 11.7791 4.15755 12.0604 4.43885C12.3417 4.72016 12.4998 5.10169 12.4998 5.49951V15.2925L9.35376 12.1455C9.25987 12.0516 9.13253 11.9989 8.99976 11.9989C8.86698 11.9989 8.73964 12.0516 8.64576 12.1455C8.55187 12.2394 8.49912 12.3667 8.49912 12.4995C8.49912 12.6323 8.55187 12.7596 8.64576 12.8535L12.6458 16.8535Z" fill="#197ACF"/>
  <path d="M12.9998 16.5004L12.9993 16.5L8.99931 12.5L8.64576 12.8535L8.99931 12.5L8.99912 12.4995L8.99931 12.4991L8.99976 12.4989L9.0002 12.4991L12.1461 15.646L12.9998 16.4999L13.8534 15.646L16.9993 12.4991L16.9998 12.4989L17.0002 12.4991L17.0004 12.4995L17.0002 12.5L13.0002 16.5L12.9998 16.5004Z" stroke="#197ACF"/>
</svg>