<svg width="33" height="32" viewBox="0 0 33 32" fill="none" xmlns="http://www.w3.org/2000/svg">
<path id="Vector" d="M32.3594 16C32.3594 20.2435 30.6547 24.3131 27.6205 27.3137C24.5862 30.3143 20.4708 32 16.1797 32C11.8886 32 7.7732 30.3143 4.73892 27.3137C1.70464 24.3131 0 20.2435 0 16C0 11.7565 1.70464 7.68687 4.73892 4.68629C7.7732 1.68571 11.8886 0 16.1797 0C20.4708 0 24.5862 1.68571 27.6205 4.68629C30.6547 7.68687 32.3594 11.7565 32.3594 16ZM17.1909 9C17.1909 8.73478 17.0844 8.48043 16.8947 8.29289C16.7051 8.10536 16.4479 8 16.1797 8C15.9115 8 15.6543 8.10536 15.4646 8.29289C15.275 8.48043 15.1685 8.73478 15.1685 9V20.586L10.8283 16.292C10.6384 16.1042 10.3808 15.9987 10.1123 15.9987C9.84377 15.9987 9.58624 16.1042 9.39635 16.292C9.20647 16.4798 9.0998 16.7344 9.0998 17C9.0998 17.2656 9.20647 17.5202 9.39635 17.708L15.4637 23.708C15.5577 23.8011 15.6693 23.875 15.7921 23.9254C15.915 23.9758 16.0467 24.0018 16.1797 24.0018C16.3127 24.0018 16.4444 23.9758 16.5673 23.9254C16.6901 23.875 16.8017 23.8011 16.8956 23.708L22.963 17.708C23.1529 17.5202 23.2596 17.2656 23.2596 17C23.2596 16.7344 23.1529 16.4798 22.963 16.292C22.7731 16.1042 22.5156 15.9987 22.2471 15.9987C21.9785 15.9987 21.721 16.1042 21.5311 16.292L17.1909 20.586V9Z" fill="white"/>
</svg>
